<?xml version="1.0" encoding="UTF-8"?>
<svg width="140pt" version="1.1" xmlns="http://www.w3.org/2000/svg" height="200pt" viewBox="0 0 140 200" xmlns:xlink="http://www.w3.org/1999/xlink">
 <defs>
  <clipPath id="Clip0">
   <path d="M0 0 L139.034 0 L139.034 193.138 L0 193.138 L0 0 Z" transform="translate(4.0019, 5.0012)"/>
  </clipPath>
  <clipPath id="Clip1">
   <path d="M0 0 L139.034 0 L139.034 136.268 L0 136.268 L0 0 Z" transform="translate(4.0019, 61.871)"/>
  </clipPath>
 </defs>
 <g id="Background">
  <g id="Group7" clip-path="url(#Clip0)">
   <g id="Group6" clip-path="url(#Clip1)">
    <path style="fill:#3a8d48; fill-rule:evenodd;stroke:none;" d="M71.7978 26.9181 C67.5747 11.4009 53.3964 0 36.5403 0 C16.3608 0 0 16.3623 0 36.5478 C0 56.7216 16.3608 73.0884 36.5403 73.0884 C54.0981 73.0884 68.7582 60.7062 72.2796 44.1957 " transform="translate(4.0019, 99.0194)"/>
    <path style="fill:#3a8d48; fill-rule:evenodd;stroke:none;" d="M64.6818 25.9686 C70.686 36.6942 69.1275 50.5092 60.0132 59.622 C49.0194 70.6173 31.2057 70.6158 20.2119 59.622 C9.2196 48.63 9.2094 30.807 20.2032 19.8135 C28.8048 11.2119 41.5971 9.3456 52.0065 14.2032 L58.2306 7.9803 C44.2809 0 26.1798 1.9686 14.2692 13.878 C0 28.1484 0 51.2871 14.2734 65.5605 C28.5426 79.8297 51.6813 79.8282 65.9517 65.5605 C78.3648 53.1459 79.9761 34.0239 70.7871 19.8633 L64.6818 25.9686 Z" transform="translate(63.0599, 61.871)"/>
    <path style="fill:#3a8d48; fill-rule:evenodd;stroke:none;" d="M8.6601 72.2019 L0 72.2019 L0 0 L8.6601 0 L8.6601 72.2019 Z" transform="translate(73.0868, 125.937)"/>
   </g>
   <path style="fill:#37afc7; fill-rule:evenodd;stroke:none;" d="M47.8065 23.8974 C47.8065 37.1061 37.1073 47.8068 23.8974 47.8068 C10.6992 47.8068 0 37.1061 0 23.8974 C0 10.695 10.6992 0 23.8974 0 C37.1073 0 47.8065 10.695 47.8065 23.8974 Z" transform="translate(23.6396, 38.2415)"/>
   <path style="fill:#c32730; fill-rule:evenodd;stroke:none;" d="M30.9918 15.4938 C30.9918 24.0573 24.0513 30.9993 15.4995 30.9993 C6.9345 30.9993 0 24.0573 0 15.4938 C0 6.9348 6.9345 0 15.4995 0 C24.0513 0 30.9918 6.9348 30.9918 15.4938 Z" transform="translate(56.1371, 5.0012)"/>
  </g>
 </g>
</svg>
